# xmcd
#
# Track frame offsets: 
#        183
#        16783
#        26223
#        41215
#        50975
#        63395
#        82508
#        92795
#        107700
#        125048
#        139445
#        151758
#
# Disc length: 2318 seconds
#
# Revision: 11
# Processed by: cddbd v1.5.2PL0 Copyright (c) Steve Scherf et al.
# Submitted via: ExactAudioCopyFreeDBPlugin 1.0
#
DISCID=a1090c0c
DTITLE=The Rolling Stones - Between The Buttons
DYEAR=1967
DGENRE=Rock
TTITLE0=Let's Spend The Night Together
TTITLE1=Yesterdays' Papers
TTITLE2=Ruby Tuesday
TTITLE3=Connection
TTITLE4=She Smiled Sweetly
TTITLE5=Cool, Calm and Collected
TTITLE6=All Sold Out
TTITLE7=My Obsession
TTITLE8=Who's Been Sleeping Here?
TTITLE9=Complicated
TTITLE10=Miss Amanda Jones
TTITLE11=Something Happened To Me Yesterday
EXTD=YEAR: 1967
EXTT0=
EXTT1=
EXTT2=
EXTT3=
EXTT4=
EXTT5=
EXTT6=
EXTT7=
EXTT8=
EXTT9=
EXTT10=
EXTT11=
PLAYORDER=
